<svg width="10" height="10" viewBox="0 0 10 10" fill="none" xmlns="http://www.w3.org/2000/svg">
<path d="M9.99639 9.66747C9.97806 7.23705 8.12022 5.25095 5.75378 5.02016C8.13932 4.7754 9.99155 2.75086 9.97308 0.304258L9.97078 0.000976562L9.66747 0.00326874C7.23705 0.0216049 5.25095 1.87944 5.02016 4.24588C4.77542 1.86034 2.75086 0.00810739 0.304258 0.0265567L0.000976562 0.028849L0.00326861 0.332131C0.0216048 2.76255 1.87944 4.74866 4.24588 4.97944C1.86034 5.22421 0.00813559 7.24874 0.0265849 9.69535L0.028877 9.99863L0.332158 9.99634C2.76258 9.978 4.74868 8.12016 4.97947 5.75372C5.22421 8.13926 7.24877 9.9915 9.69537 9.97305L9.99868 9.97076L9.99639 9.66747Z" fill="#1D1D1B"/>
</svg>
