<svg width="261" height="30" viewBox="0 0 261 30" fill="none" xmlns="http://www.w3.org/2000/svg">
<path d="M7.225 25.375C5.975 25.375 4.86667 25.1083 3.9 24.575C2.93333 24.025 2.175 23.2583 1.625 22.275C1.09167 21.2917 0.825 20.15 0.825 18.85V17.55H3.05V18.725C3.05 19.6083 3.225 20.3917 3.575 21.075C3.925 21.7417 4.40833 22.2583 5.025 22.625C5.65833 22.9917 6.38333 23.175 7.2 23.175C8.41667 23.175 9.38333 22.775 10.1 21.975C10.8333 21.1583 11.2 20.075 11.2 18.725V7.5H13.45V18.85C13.45 20.15 13.1917 21.2917 12.675 22.275C12.175 23.2583 11.45 24.025 10.5 24.575C9.56667 25.1083 8.475 25.375 7.225 25.375ZM31.265 25.375C29.7317 25.375 28.39 25.05 27.24 24.4C26.09 23.75 25.19 22.8333 24.54 21.65C23.9067 20.45 23.59 19.05 23.59 17.45V7.5H25.865V17.35C25.865 18.55 26.0817 19.5917 26.515 20.475C26.9484 21.3417 27.5734 22.0167 28.39 22.5C29.2067 22.9667 30.165 23.2 31.265 23.2C32.3984 23.2 33.365 22.9667 34.165 22.5C34.9817 22.0167 35.6067 21.3417 36.04 20.475C36.4734 19.5917 36.69 18.55 36.69 17.35V7.5H38.94V17.45C38.94 19.05 38.6234 20.45 37.99 21.65C37.3734 22.8333 36.4817 23.75 35.315 24.4C34.165 25.05 32.815 25.375 31.265 25.375ZM49.474 25V7.5H51.799L62.274 24.025V7.5H64.524V25H62.224L51.724 8.475V25H49.474ZM75.4701 25V7.5H77.7201V25H75.4701ZM88.6732 25V7.5H94.2982C96.3816 7.5 98.0149 7.95 99.1982 8.85C100.398 9.73333 100.998 10.95 100.998 12.5C100.998 14.05 100.423 15.275 99.2732 16.175C98.1232 17.0583 96.5482 17.5 94.5482 17.5H90.9232V25H88.6732ZM94.0732 17C95.5232 17 96.6649 16.6667 97.4982 16C98.3316 15.3167 98.7482 14.4 98.7482 13.25C98.7482 12.0833 98.3316 11.1667 97.4982 10.5C96.6649 9.83333 95.5232 9.5 94.0732 9.5H90.9232V17H94.0732ZM109.933 25V7.5H120.608V9.5H112.158V16H118.233V16.5H112.158V23H121.583V25H109.933ZM130.558 25V7.5H136.183C138.266 7.5 139.9 7.95 141.083 8.85C142.283 9.73333 142.883 10.95 142.883 12.5C142.883 13.7667 142.491 14.8167 141.708 15.65C140.925 16.4833 139.833 17.025 138.433 17.275L144.483 25H141.908L136.008 17.475C135.925 17.4917 135.833 17.5 135.733 17.5C135.65 17.5 135.566 17.5 135.483 17.5H132.783V25H130.558ZM135.958 17C137.408 17 138.55 16.6667 139.383 16C140.216 15.3167 140.633 14.4 140.633 13.25C140.633 12.0833 140.216 11.1667 139.383 10.5C138.55 9.83333 137.408 9.5 135.958 9.5H132.783V17H135.958Z" fill="#292929"/>
<path d="M185.5 25.375C183.767 25.375 182.217 24.9833 180.85 24.2C179.483 23.4167 178.408 22.3333 177.625 20.95C176.858 19.5667 176.475 18 176.475 16.25C176.475 14.5 176.858 12.9333 177.625 11.55C178.408 10.1667 179.483 9.08333 180.85 8.3C182.217 7.51667 183.767 7.125 185.5 7.125C186.983 7.125 188.333 7.43333 189.55 8.05C190.783 8.65 191.783 9.5 192.55 10.6C193.317 11.7 193.783 12.9667 193.95 14.4H191.675C191.492 13.3667 191.117 12.475 190.55 11.725C189.983 10.9583 189.267 10.3667 188.4 9.95C187.533 9.53333 186.558 9.325 185.475 9.325C184.175 9.325 183.017 9.61667 182 10.2C180.983 10.7833 180.192 11.6 179.625 12.65C179.075 13.7 178.8 14.9 178.8 16.25C178.8 17.5833 179.075 18.775 179.625 19.825C180.192 20.875 180.983 21.6917 182 22.275C183.017 22.8583 184.175 23.15 185.475 23.15C186.558 23.15 187.533 22.95 188.4 22.55C189.267 22.1333 189.983 21.55 190.55 20.8C191.117 20.0333 191.492 19.1333 191.675 18.1H193.95C193.783 19.5333 193.317 20.8 192.55 21.9C191.783 23 190.783 23.8583 189.55 24.475C188.333 25.075 186.983 25.375 185.5 25.375ZM200.347 25L207.447 7.5H210.372L217.472 25H215.097L212.897 19.6H204.872L202.672 25H200.347ZM205.072 19.125H212.697L208.897 9.85L205.072 19.125ZM225.866 25V7.5H231.491C233.574 7.5 235.207 7.95 236.391 8.85C237.591 9.73333 238.191 10.95 238.191 12.5C238.191 13.7667 237.799 14.8167 237.016 15.65C236.232 16.4833 235.141 17.025 233.741 17.275L239.791 25H237.216L231.316 17.475C231.232 17.4917 231.141 17.5 231.041 17.5C230.957 17.5 230.874 17.5 230.791 17.5H228.091V25H225.866ZM231.266 17C232.716 17 233.857 16.6667 234.691 16C235.524 15.3167 235.941 14.4 235.941 13.25C235.941 12.0833 235.524 11.1667 234.691 10.5C233.857 9.83333 232.716 9.5 231.266 9.5H228.091V17H231.266ZM248.273 25V7.5H258.948V9.5H250.498V16H256.573V16.5H250.498V23H259.923V25H248.273Z" fill="#292929"/>
<g clip-path="url(#clip0_901_9338)">
<path d="M164.996 21.6675C164.978 19.2371 163.12 17.2509 160.754 17.0202C163.139 16.7754 164.992 14.7509 164.973 12.3043L164.971 12.001L164.667 12.0033C162.237 12.0216 160.251 13.8794 160.02 16.2459C159.775 13.8603 157.751 12.0081 155.304 12.0266L155.001 12.0288L155.003 12.3321C155.022 14.7625 156.879 16.7487 159.246 16.9794C156.86 17.2242 155.008 19.2487 155.027 21.6953L155.029 21.9986L155.332 21.9963C157.763 21.978 159.749 20.1202 159.979 17.7537C160.224 20.1393 162.249 21.9915 164.695 21.973L164.999 21.9708L164.996 21.6675Z" fill="#1D1D1B"/>
</g>
<defs>
<clipPath id="clip0_901_9338">
<rect width="10" height="10" fill="white" transform="translate(155 12)"/>
</clipPath>
</defs>
</svg>
